<svg preserveAspectRatio="none" overflow="visible" style="display: block;" width="44" height="44" viewBox="0 0 44 44" fill="none" xmlns="http://www.w3.org/2000/svg">
<g id="Group 515">
<circle id="Ellipse 76" cx="22" cy="22" r="22" fill="#F2F0FD"/>
<path id="Vector" d="M26.3611 14.125V14.1551C26.1311 14.1379 25.901 14.125 25.6667 14.125H20.1111C19.395 14.125 18.7005 14.2152 18.0365 14.3828C18.0321 14.2969 18.0278 14.2109 18.0278 14.125C18.0278 11.8477 19.8941 10 22.1944 10C24.4948 10 26.3611 11.8477 26.3611 14.125ZM25.6667 15.5C25.8186 15.5 25.9705 15.5043 26.1181 15.5129C26.3003 15.5258 26.4826 15.543 26.6649 15.5688C27.4288 14.6879 28.566 14.125 29.8333 14.125H31.2222L30.4062 17.352C31.092 17.9879 31.6519 18.7613 32.0339 19.625H32.6111C33.3793 19.625 34 20.2395 34 21V25.125C34 25.8855 33.3793 26.5 32.6111 26.5H31.2222C30.8273 27.0199 30.3585 27.484 29.8333 27.875V30.625C29.8333 31.3855 29.2127 32 28.4444 32H27.0556C26.2873 32 25.6667 31.3855 25.6667 30.625V29.25H20.1111V30.625C20.1111 31.3855 19.4905 32 18.7222 32H17.3333C16.5651 32 15.9444 31.3855 15.9444 30.625V27.875C14.4297 26.7492 13.3967 25.0262 13.2014 23.0625H11.9514C10.3194 23.0625 9 21.7562 9 20.1406C9 18.525 10.3194 17.2188 11.9514 17.2188H12.125C12.7023 17.2188 13.1667 17.6785 13.1667 18.25C13.1667 18.8215 12.7023 19.2812 12.125 19.2812H11.9514C11.474 19.2812 11.0833 19.668 11.0833 20.1406C11.0833 20.6133 11.474 21 11.9514 21H13.3056C13.8307 18.4305 15.8099 16.3809 18.3533 15.7234C18.9132 15.5773 19.5035 15.5 20.1111 15.5H25.6667ZM28.4444 21.3438C28.4444 20.7723 27.98 20.3125 27.4028 20.3125C26.8255 20.3125 26.3611 20.7723 26.3611 21.3438C26.3611 21.9152 26.8255 22.375 27.4028 22.375C27.98 22.375 28.4444 21.9152 28.4444 21.3438Z" fill="#7C4DFF"/>
</g>
</svg>
