<svg width="500" height="333" viewBox="0 0 500 333" fill="none" xmlns="http://www.w3.org/2000/svg">
<path d="M282.029 119.381C295.476 118.445 304.416 124.365 307.07 137.775C313.794 126.873 324.175 118.769 337.576 119.308C344.443 119.585 351.084 122.103 355.835 127.235C363.94 135.992 361.147 147.994 360.774 158.688C360.53 164.764 359.951 176.462 368.748 176.772C376.511 177.046 383.071 168.191 386.602 162.163C387.483 160.667 388.621 157.588 389.829 156.526C391.436 155.113 396.943 158.37 398.606 159.083C399.993 159.678 402.825 161.171 403.672 162.169C405.029 163.77 402.612 168.333 401.88 170.026C394.17 186.72 376.711 201.022 357.395 197.924C352.329 197.142 347.593 194.925 343.745 191.538C327.644 177.222 341.416 152.178 334.368 142.656C333.057 140.886 331.426 140.2 329.311 139.872C311.782 141.068 310.942 179.835 310.53 192.615C310.422 198.457 303.784 196.791 299.819 196.862C286.877 197.093 286.562 198.293 286.555 186.11L286.587 161.395C286.594 156.843 286.804 151.962 286.289 147.462C285.847 143.607 283.545 140.185 279.355 139.937C271.169 139.452 266.479 147.613 264.192 154.364C261.179 162.999 260.024 171.911 259.414 180.984C259.119 185.47 259.319 189.945 259.019 194.41C257.429 196.796 255.415 197.325 252.383 196.922C248.015 196.299 240.424 198.267 236.823 195.614C235.519 194.653 235.858 184.489 235.857 182.558L235.854 165.918C235.855 152.683 235.839 139.467 235.887 126.215C235.913 119.24 242.049 121.487 246.892 121.061C249.397 120.841 252.354 121.155 254.866 121.189C262.375 121.291 257.07 131.841 258.777 133.952C265.92 125.939 270.742 120.868 282.029 119.381Z" fill="#00194E"/>
<path d="M152.186 76.2138C161.344 75.0889 172.836 78.1415 180.288 83.5359C186.024 87.6883 190.04 93.8016 191.14 100.845C192.312 108.348 190.414 116.691 185.878 122.815C185.173 123.767 184.11 124.975 182.851 125.087C180.875 125.263 168.837 118.068 167.15 116.608C166.836 116.336 166.416 115.944 166.284 115.534C165.714 113.763 167.68 108.585 167.455 105.943C167.234 103.347 166.137 100.797 164.104 99.113C161.462 96.9244 157.407 96.2806 154.081 96.6097C150.622 96.9518 147.581 98.6312 145.424 101.345C143.537 103.721 142.719 107.224 143.092 110.216C143.476 113.289 145.286 115.781 147.54 117.804C151.705 121.54 157.048 123.977 162.012 126.453C170.036 130.455 178.517 134.314 185.594 139.882C192.143 145.034 196.928 151.991 197.916 160.413C199.005 168.988 196.597 177.639 191.236 184.422C183.425 194.284 172.836 197.516 160.884 198.911C160.855 200.26 160.633 204.291 160.979 205.817C162.597 212.965 150.166 211.941 147.033 209.827C145.616 208.87 146.213 201.393 146.215 198.785C141.062 198.032 137.999 197.248 133.168 195.418C132.297 195.087 131.126 194.526 130.275 194.106C122.514 190.312 116.571 183.603 113.746 175.444C111.151 167.797 111.785 157.931 115.59 150.836C117.017 148.175 120.035 142.56 123.087 141.51C124.381 141.064 127.817 142.963 129.087 143.808C132.373 146.038 136.557 148.392 139.113 151.465C139.607 152.059 136.422 159.201 136.151 160.402C135.647 162.603 135.654 164.89 136.173 167.088C140.496 185.515 178.792 182.258 173.248 160.656C171.914 155.458 165.428 151.451 160.888 148.955C160.746 152.872 161.665 167.31 160.095 169.76C159.654 170.449 158.69 170.862 157.916 171.003C155.637 171.419 149.072 171.495 147.2 170.18C145.767 168.278 146.195 160.805 146.201 158.098L146.21 141.78C132.853 134.842 120.225 128.87 118.502 111.993C117.684 103.746 120.202 95.5156 125.495 89.1359C132.323 80.8534 141.757 77.2104 152.186 76.2138Z" fill="#00194E"/>
<path d="M208.087 121.113C230.551 120.958 227.754 117.724 227.759 139.235L227.76 171.981C227.761 178.785 227.766 185.589 227.793 192.392C227.804 194.911 226.968 196.181 224.554 196.884C221.021 196.899 208.625 197.516 206.321 196.309C205.533 195.896 205.071 195.049 204.868 194.211C204.243 191.626 204.583 188.211 204.584 185.546L204.637 169.495L204.612 140.085C204.606 135.187 204.578 130.258 204.624 125.359C204.632 124.475 204.844 123.228 205.371 122.524C206.131 121.509 206.943 121.312 208.087 121.113Z" fill="#00194E"/>
<path d="M215.913 84.9347C217.129 84.8625 219.878 85.1621 220.638 86.2772C225.484 93.4256 229.496 101.563 233.702 109.137C234.745 111.017 234.164 114.136 232.632 115.443C229.729 117.919 221.488 117.051 217.834 117.028C212.968 116.989 206.097 117.694 201.548 116.333C198.607 115.452 198.42 110.675 199.874 108.228C204.111 101.098 208.032 93.6398 212.6 86.7222C213.2 85.8144 214.912 85.2492 215.913 84.9347Z" fill="#7343E0"/>
<path d="M148.369 53.4534C152.342 53.0804 157.963 53.3758 162.035 53.4917C165.825 53.5998 164.524 63.4497 164.692 65.8591C164.84 67.9722 164.508 70.0197 162.515 71.0804C158.63 71.3464 152.355 71.2463 148.545 71.0278C144.763 70.8106 146.375 58.2401 146.451 55.6878C146.482 54.6444 147.569 53.9418 148.369 53.4534Z" fill="#7343E0"/>
<path d="M258.43 251.697C252.854 251.858 246.702 251.719 241.054 251.719L207.433 251.716L167.147 251.697C162.627 251.682 158.119 251.706 153.601 251.753C152.371 251.765 150.21 251.755 149.754 250.435C150.211 249.372 150.821 249.062 152.017 249.074C155.824 249.118 159.629 249.121 163.437 249.121H189.201L260.605 249.138C258.01 249.284 255.457 249.318 252.891 249.45C254.521 249.486 257.246 249.384 258.564 250.248L258.762 250.638C257.834 251.414 253.435 251.323 252.014 251.387C253.477 251.428 257.166 251.458 258.43 251.697Z" fill="#7343E0"/>
<path d="M322.397 249.135C326.155 249.099 353.464 248.555 354.773 249.718C355.002 249.923 354.91 250.17 354.91 250.45C353.591 252.373 350.779 251.809 348.684 251.733C340.474 251.441 331.78 252.075 323.621 251.704C315.952 251.941 307.085 251.731 299.341 251.731L258.43 251.697C257.166 251.458 253.477 251.428 252.014 251.387C253.435 251.324 257.834 251.414 258.762 250.638L258.564 250.248C257.246 249.384 254.521 249.487 252.891 249.45C255.457 249.318 258.01 249.284 260.605 249.138L299.727 249.104C306.934 249.104 315.271 248.903 322.397 249.135Z" fill="#13ADE9"/>
<path d="M322.397 249.135C326.155 249.099 353.464 248.555 354.773 249.718C355.002 249.923 354.91 250.17 354.91 250.45C353.591 252.373 350.779 251.809 348.684 251.733C340.474 251.441 331.78 252.075 323.621 251.704C322.012 251.328 309.536 251.426 306.821 251.375C307.617 251.097 320.166 251.275 321.98 251.275L320.803 249.567C315.935 249.579 311.064 249.565 306.196 249.523C310.864 249.177 318.018 249.733 322.161 249.169L322.397 249.135Z" fill="#04DADF"/>
<path d="M348.896 212.227C355.691 212.166 361.597 211.533 360.781 220.816C360.564 223.286 359.6 224.639 357.686 226.088L361.26 237.363L357.825 237.362L356.946 234.451C356.436 232.923 355.176 227.574 354.209 226.987C353.433 227.008 352.754 226.864 352.292 227.276C351.997 229.207 352.217 235.13 352.251 237.364L348.899 237.369L348.896 212.227ZM352.246 224.094C353.853 224.062 355.022 224.178 356.445 223.418C357.307 222.043 357.854 219.899 357.551 218.322C357.351 217.235 356.697 216.284 355.754 215.705C354.783 215.115 353.345 215.225 352.227 215.268C352.217 218.188 352.173 221.181 352.246 224.094Z" fill="#00194E"/>
<path d="M246.194 212.227L250.049 212.215C252.146 217.752 254.197 223.952 255.974 229.601C255.872 223.81 255.85 218.017 255.911 212.225L259.148 212.235C259.087 215.31 259.451 235.97 258.965 237.243L258.118 237.388C257.2 237.401 256.67 237.483 255.823 237.133C254.871 235.294 253.838 231.946 253.145 229.883L249.348 218.556C249.504 224.825 249.553 231.097 249.495 237.368L246.226 237.348C245.881 229.843 246.116 219.857 246.194 212.227Z" fill="#00194E"/>
<path d="M169.111 212.219C171.749 212.196 176.049 211.846 178.28 213.11C181.93 215.177 181.968 221.786 179.953 225C177.922 228.238 175.542 227.06 172.49 227.761L172.382 228.282L172.352 237.327L169.038 237.355C169.024 229.398 168.782 220.064 169.111 212.219ZM172.353 224.691C174.025 224.703 175.008 224.804 176.582 224.208C178.302 221.883 178.851 217.577 176.098 215.746C175.169 215.128 173.805 215.271 172.713 215.264C172.108 215.851 172.349 223.33 172.353 224.691Z" fill="#00194E"/>
<path d="M325.378 212.217L329.761 212.229C330.41 214.481 331.123 218.595 331.609 220.996L334.905 237.351L331.418 237.361C331.235 236.174 330.747 231.997 330.1 231.418L324.81 231.388C324.421 233.302 324.097 235.425 323.762 237.363L320.371 237.333C322.056 228.953 323.582 220.581 325.378 212.217ZM327.939 228.344C328.572 228.327 329.321 228.429 329.746 228.119C329.497 226.407 328.052 216.963 327.588 216.028C327.105 218.203 325.552 226.281 325.508 228.214C326.516 228.384 326.946 228.365 327.939 228.344Z" fill="#00194E"/>
<path d="M222.615 212.223L227.056 212.212C228.923 219.707 230.578 229.642 232.089 237.342L228.65 237.354C228.43 236.025 227.921 232.347 227.464 231.307C225.688 231.338 223.868 231.325 222.088 231.332L221.05 237.366L217.63 237.351C219.424 229.751 221.069 220.021 222.615 212.223ZM222.732 228.317L225.647 228.338L226.817 228.278C227.043 227.698 225.242 216.626 224.739 216.11C224.13 220.015 223.209 224.502 222.732 228.317Z" fill="#00194E"/>
<path d="M274.88 212.219C278.271 212.189 281.733 212.232 285.129 212.241L285.149 215.257L278.228 215.302C278.201 217.918 278.152 220.515 278.264 223.13L283.691 223.138L283.684 226.123L278.193 226.127L278.188 231.422L278.267 234.219L285.356 234.232L285.322 237.32C281.843 237.36 278.362 237.368 274.88 237.345V212.219Z" fill="#00194E"/>
<path d="M194.464 212.219L197.776 212.244L197.817 234.23L204.4 234.251L204.478 237.326C201.239 237.421 197.705 237.351 194.444 237.351C194.357 228.974 194.364 220.596 194.464 212.219Z" fill="#00194E"/>
<path d="M303.401 212.225L306.665 212.214C306.687 216.267 307.495 232.859 305.74 235.442C304.839 236.768 303.406 237.163 301.921 237.413C301.001 237.424 299.497 237.571 298.87 237.034C298.518 232.788 300.764 235.105 302.534 233.926C303.923 232.246 303.254 215.905 303.401 212.225Z" fill="#00194E"/>
</svg>
